# xmcd
#
# Track frame offsets: 
#        150
#        14702
#        29196
#        47883
#        63066
#        81456
#        98543
#        119372
#        138833
#        155739
#        171833
#        187843
#        203679
#
# Disc length: 2949 seconds
#
# Revision: 0
# Processed by: cddbd v1.5.2PL0 Copyright (c) Steve Scherf et al.
# Submitted via: ExactAudioCopy v0.95b4
#
DISCID=b00b830d
DTITLE=GEORGE CANYON - BETTER BE HOME SOON
DYEAR=2011
DGENRE=COUNTRY
TTITLE0=NEVER MISS YOUR WATER
TTITLE1=EVERY SHADE OF GONE
TTITLE2=BETTER BE HOME SOON
TTITLE3=SURRENDER
TTITLE4=WHEN LOVE IS ALL YOU GOT
TTITLE5=POWER OF YOU AND ME
TTITLE6=WHEN NOVEMBER FALLS
TTITLE7=LONESOME
TTITLE8=THAT'S WHERE YOU CAME IN
TTITLE9=REAL THING
TTITLE10=CRAWFISH CRAWL
TTITLE11=SUNSHINE
TTITLE12=SACRIFICE
EXTD=
EXTT0=
EXTT1=
EXTT2=
EXTT3=
EXTT4=
EXTT5=
EXTT6=
EXTT7=
EXTT8=
EXTT9=
EXTT10=
EXTT11=
EXTT12=
PLAYORDER=
